<mxfile host="Electron" modified="2024-08-30T16:16:45.005Z" agent="Mozilla/5.0 (Windows NT 10.0; Win64; x64) AppleWebKit/537.36 (KHTML, like Gecko) draw.io/24.6.1 Chrome/124.0.6367.207 Electron/30.0.6 Safari/537.36" etag="GvKsjRSNlyhNgxWsZP-D" version="24.6.1" type="device" pages="6">
  <diagram name="Type" id="J_ukDpab7G2f2lPy5zpC">
    <mxGraphModel dx="2322" dy="2034" grid="1" gridSize="10" guides="1" tooltips="1" connect="1" arrows="1" fold="1" page="1" pageScale="1" pageWidth="827" pageHeight="1169" math="0" shadow="0">
      <root>
        <mxCell id="0" />
        <mxCell id="1" parent="0" />
        <mxCell id="tqX9jJ7gf0UNeYfgPn5y-10" value="" style="group" vertex="1" connectable="0" parent="1">
          <mxGeometry x="-740" y="-1080" width="300" height="204.8092307692309" as="geometry" />
        </mxCell>
        <mxCell id="tqX9jJ7gf0UNeYfgPn5y-6" value="FMKMAC_DMA_CHANNEL_5" style="rounded=0;whiteSpace=wrap;html=1;fillColor=#f8cecc;gradientColor=#ea6b66;strokeColor=#b85450;fontColor=#000000;" vertex="1" parent="tqX9jJ7gf0UNeYfgPn5y-10">
          <mxGeometry y="151.7307692307694" width="300" height="26.53846153846154" as="geometry" />
        </mxCell>
        <mxCell id="tqX9jJ7gf0UNeYfgPn5y-7" value="FMKMAC_DMA_CHANNEL_4" style="rounded=0;whiteSpace=wrap;html=1;fillColor=#f8cecc;gradientColor=#ea6b66;strokeColor=#b85450;fontColor=#000000;" vertex="1" parent="tqX9jJ7gf0UNeYfgPn5y-10">
          <mxGeometry y="125.19076923076932" width="300" height="26.53846153846154" as="geometry" />
        </mxCell>
        <mxCell id="tqX9jJ7gf0UNeYfgPn5y-8" value="FMKMAC_DMA_CHANNEL_NB" style="rounded=0;whiteSpace=wrap;html=1;fillColor=#f8cecc;gradientColor=#ea6b66;strokeColor=#b85450;fontColor=#000000;" vertex="1" parent="tqX9jJ7gf0UNeYfgPn5y-10">
          <mxGeometry y="178.27076923076936" width="300" height="26.53846153846154" as="geometry" />
        </mxCell>
        <mxCell id="tqX9jJ7gf0UNeYfgPn5y-2" value="&lt;span style=&quot;color: rgb(0, 0, 0); text-wrap: nowrap;&quot;&gt;Enum:&amp;nbsp;&lt;/span&gt;&lt;span style=&quot;color: rgb(0, 0, 0); text-align: center;&quot;&gt;t_eFMKMAC_DmaChannel&lt;/span&gt;&lt;div&gt;&lt;span style=&quot;color: rgb(0, 0, 0); text-align: center;&quot;&gt;in FMKMAC_CFG&lt;/span&gt;&lt;/div&gt;" style="rounded=0;whiteSpace=wrap;html=1;verticalAlign=top;fillColor=#f8cecc;gradientColor=#ea6b66;strokeColor=#b85450;fontSize=16;align=left;" vertex="1" parent="tqX9jJ7gf0UNeYfgPn5y-10">
          <mxGeometry width="300" height="125.57" as="geometry" />
        </mxCell>
        <mxCell id="tqX9jJ7gf0UNeYfgPn5y-3" value="FMKMAC_DMA_CHANNEL_1" style="rounded=0;whiteSpace=wrap;html=1;fillColor=#f8cecc;gradientColor=#ea6b66;strokeColor=#b85450;fontColor=#000000;" vertex="1" parent="tqX9jJ7gf0UNeYfgPn5y-10">
          <mxGeometry y="45.5707692307692" width="300" height="26.53846153846154" as="geometry" />
        </mxCell>
        <mxCell id="tqX9jJ7gf0UNeYfgPn5y-4" value="FMKMAC_DMA_CHANNEL_2" style="rounded=0;whiteSpace=wrap;html=1;fillColor=#f8cecc;gradientColor=#ea6b66;strokeColor=#b85450;fontColor=#000000;" vertex="1" parent="tqX9jJ7gf0UNeYfgPn5y-10">
          <mxGeometry y="72.11076923076928" width="300" height="26.53846153846154" as="geometry" />
        </mxCell>
        <mxCell id="tqX9jJ7gf0UNeYfgPn5y-5" value="FMKMAC_DMA_CHANNEL_3" style="rounded=0;whiteSpace=wrap;html=1;fillColor=#f8cecc;gradientColor=#ea6b66;strokeColor=#b85450;fontColor=#000000;" vertex="1" parent="tqX9jJ7gf0UNeYfgPn5y-10">
          <mxGeometry y="98.65076923076936" width="300" height="26.53846153846154" as="geometry" />
        </mxCell>
        <mxCell id="tqX9jJ7gf0UNeYfgPn5y-19" value="" style="group" vertex="1" connectable="0" parent="1">
          <mxGeometry x="-360" y="-1080" width="300" height="151.72923076923087" as="geometry" />
        </mxCell>
        <mxCell id="tqX9jJ7gf0UNeYfgPn5y-13" value="FMKMAC_DMADIR_TD_NB" style="rounded=0;whiteSpace=wrap;html=1;fillColor=#f8cecc;gradientColor=#ea6b66;strokeColor=#b85450;fontColor=#000000;" vertex="1" parent="tqX9jJ7gf0UNeYfgPn5y-19">
          <mxGeometry y="125.19076923076932" width="300" height="26.53846153846154" as="geometry" />
        </mxCell>
        <mxCell id="tqX9jJ7gf0UNeYfgPn5y-15" value="&lt;span style=&quot;color: rgb(0, 0, 0); text-wrap: nowrap;&quot;&gt;Enum:&amp;nbsp;&lt;/span&gt;&lt;span style=&quot;color: rgb(0, 0, 0); text-align: center;&quot;&gt;t_eFMKMAC_DmaTransferDir&lt;/span&gt;&lt;div&gt;&lt;span style=&quot;color: rgb(0, 0, 0); text-align: center;&quot;&gt;in FMKMAC_.h&lt;/span&gt;&lt;/div&gt;" style="rounded=0;whiteSpace=wrap;html=1;verticalAlign=top;fillColor=#f8cecc;gradientColor=#ea6b66;strokeColor=#b85450;fontSize=16;align=left;" vertex="1" parent="tqX9jJ7gf0UNeYfgPn5y-19">
          <mxGeometry width="300" height="125.57" as="geometry" />
        </mxCell>
        <mxCell id="tqX9jJ7gf0UNeYfgPn5y-16" value="FMKMAC_DMA_TDIR_MEM_TO_PERIPH" style="rounded=0;whiteSpace=wrap;html=1;fillColor=#f8cecc;gradientColor=#ea6b66;strokeColor=#b85450;fontColor=#000000;" vertex="1" parent="tqX9jJ7gf0UNeYfgPn5y-19">
          <mxGeometry y="45.5707692307692" width="300" height="26.53846153846154" as="geometry" />
        </mxCell>
        <mxCell id="tqX9jJ7gf0UNeYfgPn5y-17" value="FMKMAC_DMA_TDIR_PERIPH_TO_MEM" style="rounded=0;whiteSpace=wrap;html=1;fillColor=#f8cecc;gradientColor=#ea6b66;strokeColor=#b85450;fontColor=#000000;" vertex="1" parent="tqX9jJ7gf0UNeYfgPn5y-19">
          <mxGeometry y="72.11076923076928" width="300" height="26.53846153846154" as="geometry" />
        </mxCell>
        <mxCell id="tqX9jJ7gf0UNeYfgPn5y-18" value="FMKMAC_DMA_TDIR_MEM_TO_MEM" style="rounded=0;whiteSpace=wrap;html=1;fillColor=#f8cecc;gradientColor=#ea6b66;strokeColor=#b85450;fontColor=#000000;" vertex="1" parent="tqX9jJ7gf0UNeYfgPn5y-19">
          <mxGeometry y="98.65076923076936" width="300" height="26.53846153846154" as="geometry" />
        </mxCell>
        <mxCell id="tqX9jJ7gf0UNeYfgPn5y-29" value="" style="group" vertex="1" connectable="0" parent="1">
          <mxGeometry x="-740" y="-800" width="300" height="100" as="geometry" />
        </mxCell>
        <mxCell id="tqX9jJ7gf0UNeYfgPn5y-24" value="&lt;span style=&quot;color: rgb(0, 0, 0); text-wrap: nowrap;&quot;&gt;Enum:&amp;nbsp;&lt;/span&gt;&lt;span style=&quot;color: rgb(0, 0, 0); text-align: center;&quot;&gt;t_eFMKMAC_DmaController&lt;/span&gt;" style="rounded=0;whiteSpace=wrap;html=1;verticalAlign=top;fillColor=#f8cecc;gradientColor=#ea6b66;strokeColor=#b85450;fontSize=16;align=left;" vertex="1" parent="tqX9jJ7gf0UNeYfgPn5y-29">
          <mxGeometry width="300" height="100" as="geometry" />
        </mxCell>
        <mxCell id="tqX9jJ7gf0UNeYfgPn5y-25" value="FMKMAC_DMA_CONTROLLERL_1" style="rounded=0;whiteSpace=wrap;html=1;fillColor=#f8cecc;gradientColor=#ea6b66;strokeColor=#b85450;fontColor=#000000;" vertex="1" parent="tqX9jJ7gf0UNeYfgPn5y-29">
          <mxGeometry y="45.5707692307692" width="300" height="26.53846153846154" as="geometry" />
        </mxCell>
        <mxCell id="tqX9jJ7gf0UNeYfgPn5y-26" value="FMKMAC_DMA_CONTROLLERL_NB" style="rounded=0;whiteSpace=wrap;html=1;fillColor=#f8cecc;gradientColor=#ea6b66;strokeColor=#b85450;fontColor=#000000;" vertex="1" parent="tqX9jJ7gf0UNeYfgPn5y-29">
          <mxGeometry y="72.11076923076928" width="300" height="26.53846153846154" as="geometry" />
        </mxCell>
        <mxCell id="tqX9jJ7gf0UNeYfgPn5y-40" value="" style="group" vertex="1" connectable="0" parent="1">
          <mxGeometry x="-740" y="-650" width="260" height="125.57" as="geometry" />
        </mxCell>
        <mxCell id="tqX9jJ7gf0UNeYfgPn5y-41" value="&lt;span style=&quot;color: rgb(0, 0, 0); text-wrap: nowrap;&quot;&gt;Enum:&amp;nbsp;&lt;/span&gt;&lt;span style=&quot;color: rgb(0, 0, 0); text-align: center;&quot;&gt;t_eFMKMAC_ChannelState&lt;/span&gt;&lt;div&gt;&lt;span style=&quot;color: rgb(0, 0, 0); text-wrap: nowrap;&quot;&gt;Location :&amp;nbsp;&lt;/span&gt;&lt;span style=&quot;color: rgb(0, 0, 0); text-align: center;&quot;&gt;FMKMAC&lt;/span&gt;&lt;span style=&quot;color: rgb(0, 0, 0); text-wrap: nowrap;&quot;&gt;.h&lt;/span&gt;&lt;/div&gt;" style="rounded=0;whiteSpace=wrap;html=1;verticalAlign=top;fillColor=#f8cecc;gradientColor=#ea6b66;strokeColor=#b85450;fontSize=16;align=left;" vertex="1" parent="tqX9jJ7gf0UNeYfgPn5y-40">
          <mxGeometry width="260" height="125.57" as="geometry" />
        </mxCell>
        <mxCell id="tqX9jJ7gf0UNeYfgPn5y-42" value="FMKCPU_CNLST_START" style="rounded=0;whiteSpace=wrap;html=1;fillColor=#f8cecc;gradientColor=#ea6b66;strokeColor=#b85450;fontColor=#000000;" vertex="1" parent="tqX9jJ7gf0UNeYfgPn5y-40">
          <mxGeometry y="45.57076923076926" width="260" height="26.53846153846154" as="geometry" />
        </mxCell>
        <mxCell id="tqX9jJ7gf0UNeYfgPn5y-43" value="FMKCPU_CNLST_STOP" style="rounded=0;whiteSpace=wrap;html=1;fillColor=#f8cecc;gradientColor=#ea6b66;strokeColor=#b85450;fontColor=#000000;" vertex="1" parent="tqX9jJ7gf0UNeYfgPn5y-40">
          <mxGeometry y="72.11076923076928" width="260" height="26.53846153846154" as="geometry" />
        </mxCell>
        <mxCell id="tqX9jJ7gf0UNeYfgPn5y-44" value="FMKCPU_CNLST_NB" style="rounded=0;whiteSpace=wrap;html=1;fillColor=#f8cecc;gradientColor=#ea6b66;strokeColor=#b85450;fontColor=#000000;" vertex="1" parent="tqX9jJ7gf0UNeYfgPn5y-40">
          <mxGeometry y="98.6507692307693" width="260" height="26.53846153846154" as="geometry" />
        </mxCell>
        <mxCell id="tqX9jJ7gf0UNeYfgPn5y-45" value="" style="group" vertex="1" connectable="0" parent="1">
          <mxGeometry x="-740" y="-480" width="260" height="125.57" as="geometry" />
        </mxCell>
        <mxCell id="tqX9jJ7gf0UNeYfgPn5y-46" value="&lt;span style=&quot;color: rgb(0, 0, 0); text-wrap: nowrap;&quot;&gt;Enum:&amp;nbsp;&lt;/span&gt;&lt;span style=&quot;color: rgb(0, 0, 0); text-align: center;&quot;&gt;t_eFMKMAC_ErrorChannel&lt;/span&gt;&lt;div&gt;&lt;span style=&quot;color: rgb(0, 0, 0); text-wrap: nowrap;&quot;&gt;Location :&amp;nbsp;&lt;/span&gt;&lt;span style=&quot;color: rgb(0, 0, 0); text-align: center;&quot;&gt;FMKMAC&lt;/span&gt;&lt;span style=&quot;color: rgb(0, 0, 0); text-wrap: nowrap;&quot;&gt;.h&lt;/span&gt;&lt;/div&gt;" style="rounded=0;whiteSpace=wrap;html=1;verticalAlign=top;fillColor=#f8cecc;gradientColor=#ea6b66;strokeColor=#b85450;fontSize=16;align=left;" vertex="1" parent="tqX9jJ7gf0UNeYfgPn5y-45">
          <mxGeometry width="260" height="125.57" as="geometry" />
        </mxCell>
        <mxCell id="tqX9jJ7gf0UNeYfgPn5y-47" value="&lt;span style=&quot;font-size: 16px;&quot;&gt;t_eFMKMAC_ErrorChannel&lt;/span&gt;" style="rounded=0;whiteSpace=wrap;html=1;fillColor=#f8cecc;gradientColor=#ea6b66;strokeColor=#b85450;fontColor=#000000;" vertex="1" parent="tqX9jJ7gf0UNeYfgPn5y-45">
          <mxGeometry y="45.57076923076926" width="260" height="26.53846153846154" as="geometry" />
        </mxCell>
        <mxCell id="tqX9jJ7gf0UNeYfgPn5y-48" value="&lt;span style=&quot;font-size: 16px;&quot;&gt;t_eFMKMAC_ErrorChannel&lt;/span&gt;" style="rounded=0;whiteSpace=wrap;html=1;fillColor=#f8cecc;gradientColor=#ea6b66;strokeColor=#b85450;fontColor=#000000;" vertex="1" parent="tqX9jJ7gf0UNeYfgPn5y-45">
          <mxGeometry y="72.11076923076928" width="260" height="26.53846153846154" as="geometry" />
        </mxCell>
        <mxCell id="tqX9jJ7gf0UNeYfgPn5y-49" value="&lt;span style=&quot;font-size: 16px;&quot;&gt;t_eFMKMAC_ErrorChannel&lt;/span&gt;" style="rounded=0;whiteSpace=wrap;html=1;fillColor=#f8cecc;gradientColor=#ea6b66;strokeColor=#b85450;fontColor=#000000;" vertex="1" parent="tqX9jJ7gf0UNeYfgPn5y-45">
          <mxGeometry y="98.6507692307693" width="260" height="26.53846153846154" as="geometry" />
        </mxCell>
        <mxCell id="tqX9jJ7gf0UNeYfgPn5y-61" value="" style="group" vertex="1" connectable="0" parent="1">
          <mxGeometry y="-1080" width="300" height="151.72923076923087" as="geometry" />
        </mxCell>
        <mxCell id="tqX9jJ7gf0UNeYfgPn5y-62" value="FMKMAC_DMA_TPR_VERY_HIGH" style="rounded=0;whiteSpace=wrap;html=1;fillColor=#f8cecc;gradientColor=#ea6b66;strokeColor=#b85450;fontColor=#000000;" vertex="1" parent="tqX9jJ7gf0UNeYfgPn5y-61">
          <mxGeometry y="125.19076923076932" width="300" height="26.53846153846154" as="geometry" />
        </mxCell>
        <mxCell id="tqX9jJ7gf0UNeYfgPn5y-63" value="&lt;span style=&quot;color: rgb(0, 0, 0); text-wrap: nowrap;&quot;&gt;Enum:&amp;nbsp;&lt;/span&gt;&lt;span style=&quot;color: rgb(0, 0, 0); text-align: center;&quot;&gt;t_eFMKMAC_DmaTransferPriority&lt;/span&gt;&lt;div&gt;&lt;span style=&quot;color: rgb(0, 0, 0); text-align: center;&quot;&gt;in FMKMAC_.h&lt;/span&gt;&lt;/div&gt;" style="rounded=0;whiteSpace=wrap;html=1;verticalAlign=top;fillColor=#f8cecc;gradientColor=#ea6b66;strokeColor=#b85450;fontSize=16;align=left;" vertex="1" parent="tqX9jJ7gf0UNeYfgPn5y-61">
          <mxGeometry width="300" height="125.57" as="geometry" />
        </mxCell>
        <mxCell id="tqX9jJ7gf0UNeYfgPn5y-64" value="FMKMAC_DMA_TPR_LOW" style="rounded=0;whiteSpace=wrap;html=1;fillColor=#f8cecc;gradientColor=#ea6b66;strokeColor=#b85450;fontColor=#000000;" vertex="1" parent="tqX9jJ7gf0UNeYfgPn5y-61">
          <mxGeometry y="45.5707692307692" width="300" height="26.53846153846154" as="geometry" />
        </mxCell>
        <mxCell id="tqX9jJ7gf0UNeYfgPn5y-65" value="FMKMAC_DMA_TPR_MEDIUM" style="rounded=0;whiteSpace=wrap;html=1;fillColor=#f8cecc;gradientColor=#ea6b66;strokeColor=#b85450;fontColor=#000000;" vertex="1" parent="tqX9jJ7gf0UNeYfgPn5y-61">
          <mxGeometry y="72.11076923076928" width="300" height="26.53846153846154" as="geometry" />
        </mxCell>
        <mxCell id="tqX9jJ7gf0UNeYfgPn5y-66" value="FMKMAC_DMA_TPR_HIGH" style="rounded=0;whiteSpace=wrap;html=1;fillColor=#f8cecc;gradientColor=#ea6b66;strokeColor=#b85450;fontColor=#000000;" vertex="1" parent="tqX9jJ7gf0UNeYfgPn5y-61">
          <mxGeometry y="98.65076923076936" width="300" height="26.53846153846154" as="geometry" />
        </mxCell>
        <mxCell id="H3Qc9tfMrAoRtkewMzzy-3" style="edgeStyle=orthogonalEdgeStyle;rounded=0;orthogonalLoop=1;jettySize=auto;html=1;exitX=0;exitY=0.25;exitDx=0;exitDy=0;entryX=1;entryY=0.25;entryDx=0;entryDy=0;" edge="1" parent="1" source="tqX9jJ7gf0UNeYfgPn5y-56" target="tqX9jJ7gf0UNeYfgPn5y-31">
          <mxGeometry relative="1" as="geometry" />
        </mxCell>
        <mxCell id="tqX9jJ7gf0UNeYfgPn5y-56" value="&lt;span style=&quot;text-wrap: nowrap; color: rgb(0, 0, 0);&quot;&gt;Struct: t_sFMKMAC_HwChannelCfg&lt;/span&gt;&lt;div&gt;&lt;span style=&quot;color: rgb(0, 0, 0); text-wrap: nowrap;&quot;&gt;In FMKMAC_.c&lt;/span&gt;&lt;/div&gt;" style="rounded=0;whiteSpace=wrap;html=1;verticalAlign=top;fillColor=#dae8fc;gradientColor=#7ea6e0;strokeColor=#6c8ebf;fontSize=16;align=left;fontStyle=0" vertex="1" parent="1">
          <mxGeometry y="-750" width="280" height="220" as="geometry" />
        </mxCell>
        <mxCell id="tqX9jJ7gf0UNeYfgPn5y-57" value="&lt;span style=&quot;color: rgb(0, 0, 0); font-size: 16px;&quot;&gt;t_uint32 *DestVariable_u32&lt;/span&gt;" style="rounded=0;whiteSpace=wrap;html=1;fillColor=#dae8fc;gradientColor=#7ea6e0;strokeColor=#6c8ebf;fontStyle=0" vertex="1" parent="1">
          <mxGeometry y="-623.2955126684308" width="280.00000000000006" height="31.36691303951091" as="geometry" />
        </mxCell>
        <mxCell id="tqX9jJ7gf0UNeYfgPn5y-58" value="&lt;span style=&quot;color: rgb(0, 0, 0); font-size: 16px;&quot;&gt;t_uint32 *SrcRegister_32&lt;/span&gt;" style="rounded=0;whiteSpace=wrap;html=1;fillColor=#dae8fc;gradientColor=#7ea6e0;strokeColor=#6c8ebf;fontStyle=0" vertex="1" parent="1">
          <mxGeometry y="-654.6655126684308" width="280.00000000000006" height="31.36691303951091" as="geometry" />
        </mxCell>
        <mxCell id="tqX9jJ7gf0UNeYfgPn5y-32" value="&lt;div style=&quot;text-align: right;&quot;&gt;&lt;br&gt;&lt;/div&gt;&lt;div style=&quot;text-align: right;&quot;&gt;&lt;span style=&quot;color: rgb(0, 0, 0); font-size: 16px;&quot;&gt;t_eFMKMAC_DmaRqstType&lt;/span&gt;&lt;br&gt;&lt;/div&gt;&lt;div style=&quot;font-size: 16px;&quot;&gt;&lt;/div&gt;&lt;div style=&quot;text-align: right;&quot;&gt;&lt;span style=&quot;font-size: 16px; color: rgb(0, 0, 0);&quot;&gt;&lt;br&gt;&lt;/span&gt;&lt;/div&gt;" style="rounded=0;whiteSpace=wrap;html=1;fillColor=#dae8fc;gradientColor=#7ea6e0;strokeColor=#6c8ebf;fontStyle=0" vertex="1" parent="1">
          <mxGeometry y="-686.0355126684308" width="280.00000000000006" height="31.36691303951091" as="geometry" />
        </mxCell>
        <mxCell id="H3Qc9tfMrAoRtkewMzzy-1" value="" style="group" vertex="1" connectable="0" parent="1">
          <mxGeometry x="-360" y="-478.84" width="390" height="100" as="geometry" />
        </mxCell>
        <mxCell id="tqX9jJ7gf0UNeYfgPn5y-35" value="&lt;span style=&quot;color: rgb(0, 0, 0); text-wrap: nowrap;&quot;&gt;Struct: t_sFMKMAC_DmaInfo&lt;/span&gt;&lt;div&gt;&lt;span style=&quot;color: rgb(0, 0, 0); text-wrap: nowrap;&quot;&gt;In FMKMAC_.c&lt;/span&gt;&lt;/div&gt;" style="rounded=0;whiteSpace=wrap;html=1;verticalAlign=top;fillColor=#dae8fc;gradientColor=#7ea6e0;strokeColor=#6c8ebf;fontSize=16;align=left;fontStyle=0" vertex="1" parent="H3Qc9tfMrAoRtkewMzzy-1">
          <mxGeometry width="389.99999999999983" height="100" as="geometry" />
        </mxCell>
        <mxCell id="tqX9jJ7gf0UNeYfgPn5y-36" value="&lt;span style=&quot;color: rgb(0, 0, 0); font-size: 16px; text-align: left; text-wrap: nowrap;&quot;&gt;DMA_TypeDef *&lt;/span&gt;" style="rounded=0;whiteSpace=wrap;html=1;fillColor=#dae8fc;gradientColor=#7ea6e0;strokeColor=#6c8ebf;fontStyle=0" vertex="1" parent="H3Qc9tfMrAoRtkewMzzy-1">
          <mxGeometry y="45.3869230769231" width="390" height="28.846153846153847" as="geometry" />
        </mxCell>
        <mxCell id="tqX9jJ7gf0UNeYfgPn5y-37" value="&lt;div&gt;&lt;span style=&quot;color: rgb(0, 0, 0); font-size: 16px; text-align: left; text-wrap: nowrap;&quot;&gt;t_sFMKMAC_ChannelInfo Channel[CHANNEL_NB]&lt;/span&gt;&lt;span style=&quot;font-size: 16px; text-align: left; text-wrap: nowrap; color: rgb(0, 0, 0);&quot;&gt;&lt;br&gt;&lt;/span&gt;&lt;/div&gt;" style="rounded=0;whiteSpace=wrap;html=1;fillColor=#dae8fc;gradientColor=#7ea6e0;strokeColor=#6c8ebf;fontStyle=0;verticalAlign=top;" vertex="1" parent="H3Qc9tfMrAoRtkewMzzy-1">
          <mxGeometry y="74.22999999999996" width="389.99999999999983" height="25.77" as="geometry" />
        </mxCell>
        <mxCell id="H3Qc9tfMrAoRtkewMzzy-2" style="edgeStyle=orthogonalEdgeStyle;rounded=0;orthogonalLoop=1;jettySize=auto;html=1;exitX=0.5;exitY=1;exitDx=0;exitDy=0;" edge="1" parent="1" source="tqX9jJ7gf0UNeYfgPn5y-50" target="tqX9jJ7gf0UNeYfgPn5y-35">
          <mxGeometry relative="1" as="geometry" />
        </mxCell>
        <mxCell id="H3Qc9tfMrAoRtkewMzzy-4" style="edgeStyle=orthogonalEdgeStyle;rounded=0;orthogonalLoop=1;jettySize=auto;html=1;exitX=0.5;exitY=1;exitDx=0;exitDy=0;" edge="1" parent="1" source="tqX9jJ7gf0UNeYfgPn5y-13" target="tqX9jJ7gf0UNeYfgPn5y-56">
          <mxGeometry relative="1" as="geometry" />
        </mxCell>
        <mxCell id="H3Qc9tfMrAoRtkewMzzy-5" style="edgeStyle=orthogonalEdgeStyle;rounded=0;orthogonalLoop=1;jettySize=auto;html=1;exitX=0.5;exitY=1;exitDx=0;exitDy=0;" edge="1" parent="1" source="tqX9jJ7gf0UNeYfgPn5y-62" target="tqX9jJ7gf0UNeYfgPn5y-56">
          <mxGeometry relative="1" as="geometry" />
        </mxCell>
        <mxCell id="H3Qc9tfMrAoRtkewMzzy-6" value="" style="group" vertex="1" connectable="0" parent="1">
          <mxGeometry x="-720" y="-160" width="430" height="90" as="geometry" />
        </mxCell>
        <mxCell id="H3Qc9tfMrAoRtkewMzzy-7" value="" style="rounded=0;whiteSpace=wrap;html=1;fillColor=#fff2cc;gradientColor=#ffd966;strokeColor=#d6b656;fontColor=#000000;" vertex="1" parent="H3Qc9tfMrAoRtkewMzzy-6">
          <mxGeometry width="429.99999999999994" height="90" as="geometry" />
        </mxCell>
        <mxCell id="H3Qc9tfMrAoRtkewMzzy-8" value="&lt;span style=&quot;font-size: 16px; text-align: left; text-wrap: nowrap;&quot;&gt;t_sFMKMAC_DmaInfo In FMKMAC.c&lt;/span&gt;" style="rounded=0;whiteSpace=wrap;html=1;fillColor=#fff2cc;gradientColor=#ffd966;strokeColor=#d6b656;fontColor=#000000;" vertex="1" parent="H3Qc9tfMrAoRtkewMzzy-6">
          <mxGeometry width="429.99999999999994" height="40" as="geometry" />
        </mxCell>
        <mxCell id="H3Qc9tfMrAoRtkewMzzy-9" value="&lt;div style=&quot;text-align: left;&quot;&gt;&lt;span style=&quot;font-size: 16px; text-wrap: nowrap; background-color: initial;&quot;&gt;g_DmaInfo_as&lt;/span&gt;&lt;span style=&quot;background-color: initial;&quot;&gt;[FMKMAC_DMA_CONTROLLERL_NB]&lt;/span&gt;&lt;/div&gt;" style="rounded=0;whiteSpace=wrap;html=1;fillColor=#fff2cc;gradientColor=#ffd966;strokeColor=#d6b656;fontColor=#000000;" vertex="1" parent="H3Qc9tfMrAoRtkewMzzy-6">
          <mxGeometry y="40" width="429.99999999999994" height="50" as="geometry" />
        </mxCell>
        <mxCell id="tqX9jJ7gf0UNeYfgPn5y-31" value="&lt;span style=&quot;text-wrap: nowrap; color: rgb(0, 0, 0);&quot;&gt;Struct: t_sFMKMAC_ChannelInfo&lt;/span&gt;&lt;div&gt;&lt;span style=&quot;color: rgb(0, 0, 0); text-wrap: nowrap;&quot;&gt;In FMKMAC_.c&lt;/span&gt;&lt;/div&gt;" style="rounded=0;whiteSpace=wrap;html=1;verticalAlign=top;fillColor=#dae8fc;gradientColor=#7ea6e0;strokeColor=#6c8ebf;fontSize=16;align=left;fontStyle=0" vertex="1" parent="1">
          <mxGeometry x="-350" y="-775" width="280" height="175" as="geometry" />
        </mxCell>
        <mxCell id="tqX9jJ7gf0UNeYfgPn5y-33" value="&lt;span style=&quot;font-size: 16px; color: rgb(0, 0, 0);&quot;&gt;t_eFMKMAC_ChannelState&lt;/span&gt;&lt;br&gt;&lt;div&gt;&lt;span style=&quot;font-size: 16px; color: rgb(0, 0, 0);&quot;&gt;&lt;br&gt;&lt;/span&gt;&lt;/div&gt;" style="rounded=0;whiteSpace=wrap;html=1;fillColor=#dae8fc;gradientColor=#7ea6e0;strokeColor=#6c8ebf;fontStyle=0;verticalAlign=top;" vertex="1" parent="1">
          <mxGeometry x="-350" y="-651.0419454329774" width="280" height="28.021945432977464" as="geometry" />
        </mxCell>
        <mxCell id="tqX9jJ7gf0UNeYfgPn5y-50" value="&lt;div&gt;&lt;span style=&quot;color: rgb(0, 0, 0); font-size: 16px;&quot;&gt;t_bool IsConfigured_b&lt;/span&gt;&lt;span style=&quot;font-size: 16px; color: rgb(0, 0, 0);&quot;&gt;&lt;br&gt;&lt;/span&gt;&lt;/div&gt;" style="rounded=0;whiteSpace=wrap;html=1;fillColor=#dae8fc;gradientColor=#7ea6e0;strokeColor=#6c8ebf;fontStyle=0;verticalAlign=top;" vertex="1" parent="1">
          <mxGeometry y="-560.0019454329774" width="280" height="28.021945432977464" as="geometry" />
        </mxCell>
        <mxCell id="tqX9jJ7gf0UNeYfgPn5y-53" value="&lt;span style=&quot;color: rgb(0, 0, 0); font-size: 16px;&quot;&gt;DMA_Channel_Typedef * HwChannel&lt;/span&gt;" style="rounded=0;whiteSpace=wrap;html=1;fillColor=#dae8fc;gradientColor=#7ea6e0;strokeColor=#6c8ebf;fontStyle=0" vertex="1" parent="1">
          <mxGeometry x="-350" y="-713.7755126684308" width="280.00000000000006" height="31.36691303951091" as="geometry" />
        </mxCell>
        <mxCell id="tqX9jJ7gf0UNeYfgPn5y-68" value="&lt;div&gt;&lt;span style=&quot;color: rgb(0, 0, 0); font-size: 16px; text-align: left; text-wrap: nowrap;&quot;&gt;t_sFMKMAC_HwChannelCfg&lt;/span&gt;&lt;span style=&quot;font-size: 16px; color: rgb(0, 0, 0);&quot;&gt;&lt;br&gt;&lt;/span&gt;&lt;/div&gt;" style="rounded=0;whiteSpace=wrap;html=1;fillColor=#dae8fc;gradientColor=#7ea6e0;strokeColor=#6c8ebf;fontStyle=0;verticalAlign=top;" vertex="1" parent="1">
          <mxGeometry x="-350" y="-682.4119454329774" width="280" height="28.021945432977464" as="geometry" />
        </mxCell>
        <mxCell id="K0VANhnekNM2vZIKzIjl-1" value="&lt;div&gt;&lt;span style=&quot;color: rgb(0, 0, 0); font-size: 16px;&quot;&gt;t_eFMKMAC_ErrorChannel&lt;/span&gt;&lt;span style=&quot;font-size: 16px; color: rgb(0, 0, 0);&quot;&gt;&lt;br&gt;&lt;/span&gt;&lt;/div&gt;" style="rounded=0;whiteSpace=wrap;html=1;fillColor=#dae8fc;gradientColor=#7ea6e0;strokeColor=#6c8ebf;fontStyle=0;verticalAlign=top;" vertex="1" parent="1">
          <mxGeometry x="-350" y="-621.6219454329774" width="280" height="28.021945432977464" as="geometry" />
        </mxCell>
        <mxCell id="Yu9To7gIa_PElTMjgJjJ-1" value="" style="group" vertex="1" connectable="0" parent="1">
          <mxGeometry x="400" y="-1080" width="300" height="151.72923076923087" as="geometry" />
        </mxCell>
        <mxCell id="Yu9To7gIa_PElTMjgJjJ-2" value="FMKMAC_DMA_RQSTYPE_NB" style="rounded=0;whiteSpace=wrap;html=1;fillColor=#f8cecc;gradientColor=#ea6b66;strokeColor=#b85450;fontColor=#000000;" vertex="1" parent="Yu9To7gIa_PElTMjgJjJ-1">
          <mxGeometry y="125.19076923076932" width="300" height="26.53846153846154" as="geometry" />
        </mxCell>
        <mxCell id="Yu9To7gIa_PElTMjgJjJ-3" value="&lt;span style=&quot;color: rgb(0, 0, 0); text-wrap: nowrap;&quot;&gt;Enum:&amp;nbsp;&lt;/span&gt;&lt;span style=&quot;color: rgb(0, 0, 0); text-align: center;&quot;&gt;t_eFMKMAC_DmaRqstType&lt;/span&gt;&lt;div&gt;&lt;div&gt;&lt;span style=&quot;color: rgb(0, 0, 0); text-align: center;&quot;&gt;in FMKMAC_.h&lt;/span&gt;&lt;/div&gt;&lt;/div&gt;" style="rounded=0;whiteSpace=wrap;html=1;verticalAlign=top;fillColor=#f8cecc;gradientColor=#ea6b66;strokeColor=#b85450;fontSize=16;align=left;" vertex="1" parent="Yu9To7gIa_PElTMjgJjJ-1">
          <mxGeometry width="300" height="125.57" as="geometry" />
        </mxCell>
        <mxCell id="Yu9To7gIa_PElTMjgJjJ-4" value="FMKMAC_DMA_RQSTYPE_ADC" style="rounded=0;whiteSpace=wrap;html=1;fillColor=#f8cecc;gradientColor=#ea6b66;strokeColor=#b85450;fontColor=#000000;" vertex="1" parent="Yu9To7gIa_PElTMjgJjJ-1">
          <mxGeometry y="45.5707692307692" width="300" height="26.53846153846154" as="geometry" />
        </mxCell>
        <mxCell id="Yu9To7gIa_PElTMjgJjJ-5" value="FMKMAC_DMA_RQSTYPE_SPI" style="rounded=0;whiteSpace=wrap;html=1;fillColor=#f8cecc;gradientColor=#ea6b66;strokeColor=#b85450;fontColor=#000000;" vertex="1" parent="Yu9To7gIa_PElTMjgJjJ-1">
          <mxGeometry y="72.11076923076928" width="300" height="26.53846153846154" as="geometry" />
        </mxCell>
        <mxCell id="Yu9To7gIa_PElTMjgJjJ-6" value="FMKMAC_DMA_RQSTYPE_UART" style="rounded=0;whiteSpace=wrap;html=1;fillColor=#f8cecc;gradientColor=#ea6b66;strokeColor=#b85450;fontColor=#000000;" vertex="1" parent="Yu9To7gIa_PElTMjgJjJ-1">
          <mxGeometry y="98.65076923076936" width="300" height="26.53846153846154" as="geometry" />
        </mxCell>
        <mxCell id="Yu9To7gIa_PElTMjgJjJ-7" value="" style="group" vertex="1" connectable="0" parent="1">
          <mxGeometry x="360" y="-760" width="390" height="100" as="geometry" />
        </mxCell>
        <mxCell id="Yu9To7gIa_PElTMjgJjJ-8" value="&lt;span style=&quot;color: rgb(0, 0, 0); text-wrap: nowrap;&quot;&gt;Struct: t_sFMKMAC_DmaHardwareInfo&lt;/span&gt;&lt;div&gt;&lt;span style=&quot;color: rgb(0, 0, 0); text-wrap: nowrap;&quot;&gt;In FMKMAC_.c&lt;/span&gt;&lt;/div&gt;" style="rounded=0;whiteSpace=wrap;html=1;verticalAlign=top;fillColor=#dae8fc;gradientColor=#7ea6e0;strokeColor=#6c8ebf;fontSize=16;align=left;fontStyle=0" vertex="1" parent="Yu9To7gIa_PElTMjgJjJ-7">
          <mxGeometry width="389.99999999999983" height="100" as="geometry" />
        </mxCell>
        <mxCell id="Yu9To7gIa_PElTMjgJjJ-9" value="&lt;span style=&quot;color: rgb(0, 0, 0); font-size: 16px;&quot;&gt;t_eFMKMAC_DmaController&lt;/span&gt;" style="rounded=0;whiteSpace=wrap;html=1;fillColor=#dae8fc;gradientColor=#7ea6e0;strokeColor=#6c8ebf;fontStyle=0" vertex="1" parent="Yu9To7gIa_PElTMjgJjJ-7">
          <mxGeometry y="45.3869230769231" width="390" height="28.846153846153847" as="geometry" />
        </mxCell>
        <mxCell id="Yu9To7gIa_PElTMjgJjJ-10" value="&lt;div&gt;&lt;span style=&quot;color: rgb(0, 0, 0); font-size: 16px;&quot;&gt;t_eFMKMAC_DmaChannel&lt;/span&gt;&lt;span style=&quot;font-size: 16px; text-align: left; text-wrap: nowrap; color: rgb(0, 0, 0);&quot;&gt;&lt;br&gt;&lt;/span&gt;&lt;/div&gt;" style="rounded=0;whiteSpace=wrap;html=1;fillColor=#dae8fc;gradientColor=#7ea6e0;strokeColor=#6c8ebf;fontStyle=0;verticalAlign=top;" vertex="1" parent="Yu9To7gIa_PElTMjgJjJ-7">
          <mxGeometry y="74.22999999999996" width="389.99999999999983" height="25.77" as="geometry" />
        </mxCell>
        <mxCell id="Yu9To7gIa_PElTMjgJjJ-11" value="" style="group" vertex="1" connectable="0" parent="1">
          <mxGeometry x="340" y="-160" width="430" height="90" as="geometry" />
        </mxCell>
        <mxCell id="Yu9To7gIa_PElTMjgJjJ-12" value="" style="rounded=0;whiteSpace=wrap;html=1;fillColor=#fff2cc;gradientColor=#ffd966;strokeColor=#d6b656;fontColor=#000000;" vertex="1" parent="Yu9To7gIa_PElTMjgJjJ-11">
          <mxGeometry width="429.99999999999994" height="90" as="geometry" />
        </mxCell>
        <mxCell id="Yu9To7gIa_PElTMjgJjJ-13" value="&lt;span style=&quot;font-size: 16px; text-align: left; text-wrap: nowrap;&quot;&gt;t_sFMKMAC_DmaHardwareInfo in FMKMAC_CFG&lt;/span&gt;" style="rounded=0;whiteSpace=wrap;html=1;fillColor=#fff2cc;gradientColor=#ffd966;strokeColor=#d6b656;fontColor=#000000;" vertex="1" parent="Yu9To7gIa_PElTMjgJjJ-11">
          <mxGeometry width="429.99999999999994" height="40" as="geometry" />
        </mxCell>
        <mxCell id="Yu9To7gIa_PElTMjgJjJ-14" value="&lt;div style=&quot;text-align: left;&quot;&gt;&lt;span style=&quot;font-size: 16px; text-wrap: nowrap; background-color: initial;&quot;&gt;c_DmaHardwareCfg&lt;/span&gt;&lt;span style=&quot;background-color: initial;&quot;&gt;[&lt;/span&gt;&lt;span style=&quot;text-align: center;&quot;&gt;FMKMAC_DMA_RQSTYPE_NB&lt;/span&gt;&lt;span style=&quot;background-color: initial;&quot;&gt;]&lt;/span&gt;&lt;/div&gt;" style="rounded=0;whiteSpace=wrap;html=1;fillColor=#fff2cc;gradientColor=#ffd966;strokeColor=#d6b656;fontColor=#000000;" vertex="1" parent="Yu9To7gIa_PElTMjgJjJ-11">
          <mxGeometry y="40" width="429.99999999999994" height="50" as="geometry" />
        </mxCell>
        <mxCell id="DgG5E8pLA0viXRAdA9qr-1" value="&lt;span style=&quot;color: rgb(0, 0, 0); font-size: 16px;&quot;&gt;t_uint16 dataSize_u16&lt;/span&gt;" style="rounded=0;whiteSpace=wrap;html=1;fillColor=#dae8fc;gradientColor=#7ea6e0;strokeColor=#6c8ebf;fontStyle=0" vertex="1" parent="1">
          <mxGeometry y="-591.3655126684308" width="280.00000000000006" height="31.36691303951091" as="geometry" />
        </mxCell>
        <mxCell id="yDnBSB9F0oieylOKdNmH-1" style="edgeStyle=orthogonalEdgeStyle;rounded=0;orthogonalLoop=1;jettySize=auto;html=1;exitX=0.5;exitY=1;exitDx=0;exitDy=0;" edge="1" parent="1" source="Yu9To7gIa_PElTMjgJjJ-10" target="Yu9To7gIa_PElTMjgJjJ-13">
          <mxGeometry relative="1" as="geometry" />
        </mxCell>
      </root>
    </mxGraphModel>
  </diagram>
  <diagram id="lzSB0auTT_Vmty0aPVyD" name="Static_API">
    <mxGraphModel dx="767" dy="1619" grid="1" gridSize="10" guides="1" tooltips="1" connect="1" arrows="1" fold="1" page="1" pageScale="1" pageWidth="827" pageHeight="1169" math="0" shadow="0">
      <root>
        <mxCell id="0" />
        <mxCell id="1" parent="0" />
        <mxCell id="T7zozRN5q4YUnGLXk7yY-1" value="" style="group" vertex="1" connectable="0" parent="1">
          <mxGeometry x="120" y="-1110" width="560" height="160" as="geometry" />
        </mxCell>
        <mxCell id="T7zozRN5q4YUnGLXk7yY-2" value="Avoir le define du à l&#39;enum" style="rounded=0;whiteSpace=wrap;html=1;fillColor=#d5e8d4;gradientColor=#97d077;strokeColor=#82b366;fontColor=#000000;align=left;" vertex="1" parent="T7zozRN5q4YUnGLXk7yY-1">
          <mxGeometry width="560" height="160" as="geometry" />
        </mxCell>
        <mxCell id="T7zozRN5q4YUnGLXk7yY-3" value="&lt;div style=&quot;text-align: left;&quot;&gt;FMKMAC_SetDmaBspCfg(&lt;span style=&quot;text-align: center; background-color: initial;&quot;&gt;t_eFMKMAC_DmaRqstType, *DmaHandleTypedef&lt;/span&gt;&lt;span style=&quot;background-color: initial;&quot;&gt;)&lt;/span&gt;&lt;br&gt;&lt;/div&gt;" style="rounded=0;whiteSpace=wrap;html=1;fillColor=#d5e8d4;gradientColor=#97d077;strokeColor=#82b366;fontColor=#000000;" vertex="1" parent="T7zozRN5q4YUnGLXk7yY-1">
          <mxGeometry width="560" height="40" as="geometry" />
        </mxCell>
        <mxCell id="noloTbGLoIPHR8MEBMho-1" value="" style="group" vertex="1" connectable="0" parent="1">
          <mxGeometry x="130" y="-880" width="560" height="160" as="geometry" />
        </mxCell>
        <mxCell id="noloTbGLoIPHR8MEBMho-2" value="Set une input en mode digital, regarder si cette pin est déjà connfigurer avant&amp;nbsp;" style="rounded=0;whiteSpace=wrap;html=1;fillColor=#d5e8d4;gradientColor=#97d077;strokeColor=#82b366;fontColor=#000000;align=left;" vertex="1" parent="noloTbGLoIPHR8MEBMho-1">
          <mxGeometry width="560" height="160" as="geometry" />
        </mxCell>
        <mxCell id="noloTbGLoIPHR8MEBMho-3" value="&lt;div style=&quot;text-align: left;&quot;&gt;s_FMKMAC_SetDmaBspChannel(t_echannel, t_uint32 * BspChannel)&lt;/div&gt;" style="rounded=0;whiteSpace=wrap;html=1;fillColor=#d5e8d4;gradientColor=#97d077;strokeColor=#82b366;fontColor=#000000;" vertex="1" parent="noloTbGLoIPHR8MEBMho-1">
          <mxGeometry width="560" height="40" as="geometry" />
        </mxCell>
      </root>
    </mxGraphModel>
  </diagram>
  <diagram id="PwmOPesEx7rYcoleubIB" name="API">
    <mxGraphModel dx="714" dy="1588" grid="1" gridSize="10" guides="1" tooltips="1" connect="1" arrows="1" fold="1" page="1" pageScale="1" pageWidth="827" pageHeight="1169" math="0" shadow="0">
      <root>
        <mxCell id="0" />
        <mxCell id="1" parent="0" />
        <mxCell id="aN3Bw4huGzsUo9MceIwE-1" value="" style="group" vertex="1" connectable="0" parent="1">
          <mxGeometry x="120" y="-1110" width="620" height="160" as="geometry" />
        </mxCell>
        <mxCell id="aN3Bw4huGzsUo9MceIwE-2" value="Penser à Enable clockport" style="rounded=0;whiteSpace=wrap;html=1;fillColor=#d5e8d4;gradientColor=#97d077;strokeColor=#82b366;fontColor=#000000;align=left;" vertex="1" parent="aN3Bw4huGzsUo9MceIwE-1">
          <mxGeometry width="620" height="160" as="geometry" />
        </mxCell>
        <mxCell id="aN3Bw4huGzsUo9MceIwE-3" value="&lt;div style=&quot;text-align: left;&quot;&gt;&lt;span style=&quot;background-color: initial;&quot;&gt;FMK&lt;span style=&quot;text-wrap: nowrap;&quot;&gt;MAC_RqstDmaInit(&lt;/span&gt;&lt;/span&gt;&lt;span style=&quot;text-align: center;&quot;&gt;t_eFMKMAC_DmaRqstType, void *ModuleHandle&lt;/span&gt;&lt;span style=&quot;text-wrap: nowrap; background-color: initial;&quot;&gt;)&lt;/span&gt;&lt;br&gt;&lt;/div&gt;" style="rounded=0;whiteSpace=wrap;html=1;fillColor=#d5e8d4;gradientColor=#97d077;strokeColor=#82b366;fontColor=#000000;" vertex="1" parent="aN3Bw4huGzsUo9MceIwE-1">
          <mxGeometry width="620" height="40" as="geometry" />
        </mxCell>
        <mxCell id="4AxlMUKFiD0UbfDJSeSd-1" value="" style="group" vertex="1" connectable="0" parent="1">
          <mxGeometry x="120" y="-880" width="670" height="160" as="geometry" />
        </mxCell>
        <mxCell id="4AxlMUKFiD0UbfDJSeSd-2" value="Start ou Stop les operations Dma pour un type" style="rounded=0;whiteSpace=wrap;html=1;fillColor=#d5e8d4;gradientColor=#97d077;strokeColor=#82b366;fontColor=#000000;align=left;" vertex="1" parent="4AxlMUKFiD0UbfDJSeSd-1">
          <mxGeometry width="670" height="160" as="geometry" />
        </mxCell>
        <mxCell id="4AxlMUKFiD0UbfDJSeSd-3" value="&lt;div style=&quot;text-align: left;&quot;&gt;&lt;span style=&quot;background-color: initial;&quot;&gt;FMK&lt;span style=&quot;text-wrap: nowrap;&quot;&gt;MAC_SetDmaState(&lt;/span&gt;&lt;/span&gt;&lt;span style=&quot;text-align: center;&quot;&gt;t_eFMKMAC_DmaRqstType&lt;/span&gt;&lt;span style=&quot;background-color: initial; text-align: center;&quot;&gt;,&amp;nbsp;&lt;/span&gt;&lt;span style=&quot;text-wrap: nowrap; background-color: initial;&quot;&gt;t_eFMKMAC_ChannelState&lt;/span&gt;&lt;span style=&quot;background-color: initial; text-wrap: nowrap;&quot;&gt;)&lt;/span&gt;&lt;/div&gt;" style="rounded=0;whiteSpace=wrap;html=1;fillColor=#d5e8d4;gradientColor=#97d077;strokeColor=#82b366;fontColor=#000000;" vertex="1" parent="4AxlMUKFiD0UbfDJSeSd-1">
          <mxGeometry width="670" height="40" as="geometry" />
        </mxCell>
      </root>
    </mxGraphModel>
  </diagram>
  <diagram id="7ebH3tOfYBqMzVYBd-zR" name="sFunc__SetBspDmaCfg">
    <mxGraphModel dx="714" dy="1588" grid="1" gridSize="10" guides="1" tooltips="1" connect="1" arrows="1" fold="1" page="1" pageScale="1" pageWidth="827" pageHeight="1169" math="0" shadow="0">
      <root>
        <mxCell id="0" />
        <mxCell id="1" parent="0" />
        <mxCell id="ZgnYCRuPzPugdebFx7Tc-1" style="edgeStyle=orthogonalEdgeStyle;rounded=0;orthogonalLoop=1;jettySize=auto;html=1;exitX=0.5;exitY=1;exitDx=0;exitDy=0;entryX=1;entryY=0.25;entryDx=0;entryDy=0;" edge="1" parent="1" source="ZgnYCRuPzPugdebFx7Tc-2" target="ZgnYCRuPzPugdebFx7Tc-7">
          <mxGeometry relative="1" as="geometry">
            <mxPoint x="840.49" y="-649" as="targetPoint" />
          </mxGeometry>
        </mxCell>
        <mxCell id="ZgnYCRuPzPugdebFx7Tc-2" value="VerifArgument" style="shape=parallelogram;perimeter=parallelogramPerimeter;whiteSpace=wrap;html=1;fixedSize=1;fillColor=#6d8764;fontColor=#000000;strokeColor=#3A5431;" vertex="1" parent="1">
          <mxGeometry x="664.06" y="-730" width="351.88" height="20" as="geometry" />
        </mxCell>
        <mxCell id="ZgnYCRuPzPugdebFx7Tc-3" style="edgeStyle=orthogonalEdgeStyle;rounded=0;orthogonalLoop=1;jettySize=auto;html=1;exitX=0.5;exitY=1;exitDx=0;exitDy=0;entryX=0.5;entryY=0;entryDx=0;entryDy=0;" edge="1" parent="1" source="ZgnYCRuPzPugdebFx7Tc-4" target="ZgnYCRuPzPugdebFx7Tc-2">
          <mxGeometry relative="1" as="geometry" />
        </mxCell>
        <mxCell id="ZgnYCRuPzPugdebFx7Tc-4" value="Start" style="ellipse;whiteSpace=wrap;html=1;aspect=fixed;fillColor=#f5f5f5;fontColor=#333333;strokeColor=#666666;" vertex="1" parent="1">
          <mxGeometry x="800" y="-860" width="80" height="80" as="geometry" />
        </mxCell>
        <mxCell id="ZgnYCRuPzPugdebFx7Tc-5" value="" style="ellipse;whiteSpace=wrap;html=1;aspect=fixed;fillColor=#fa6800;fontColor=#000000;strokeColor=#C73500;container=0;" vertex="1" parent="1">
          <mxGeometry x="799.8299999999998" y="-632.22" width="80" height="80" as="geometry" />
        </mxCell>
        <mxCell id="ZgnYCRuPzPugdebFx7Tc-6" value="Success" style="text;html=1;align=center;verticalAlign=middle;whiteSpace=wrap;rounded=0;rotation=-45;container=0;fontColor=#000000;" vertex="1" parent="1">
          <mxGeometry x="830.0199999999999" y="-592.22" width="49.81" height="30" as="geometry" />
        </mxCell>
        <mxCell id="ZgnYCRuPzPugdebFx7Tc-7" value="Fail" style="text;html=1;align=center;verticalAlign=middle;whiteSpace=wrap;rounded=0;rotation=-45;container=0;fontColor=#000000;" vertex="1" parent="1">
          <mxGeometry x="799.8299999999999" y="-622.22" width="49.81" height="20" as="geometry" />
        </mxCell>
        <mxCell id="ZgnYCRuPzPugdebFx7Tc-8" value="" style="endArrow=none;html=1;rounded=0;" edge="1" parent="1">
          <mxGeometry width="50" height="50" relative="1" as="geometry">
            <mxPoint x="814.7399999999999" y="-567.22" as="sourcePoint" />
            <mxPoint x="864.7399999999999" y="-617.22" as="targetPoint" />
          </mxGeometry>
        </mxCell>
        <mxCell id="r5KIFu5fZb0e7EYLhqme-1" value="&lt;span style=&quot;text-align: left; color: rgb(0, 0, 0);&quot;&gt;FMKMAC_SetDmaBspCfg(&lt;/span&gt;&lt;span style=&quot;background-color: initial; color: rgb(0, 0, 0);&quot;&gt;t_eFMKMAC_DmaRqstType, *DmaHandleTypedef, void *moduleHandle_pv&lt;/span&gt;&lt;span style=&quot;text-align: left; background-color: initial; color: rgb(0, 0, 0);&quot;&gt;)&lt;/span&gt;" style="rounded=0;whiteSpace=wrap;html=1;fillColor=#647687;fontColor=#ffffff;strokeColor=#314354;" vertex="1" parent="1">
          <mxGeometry x="362.43" y="-1020" width="900" height="60" as="geometry" />
        </mxCell>
        <mxCell id="AkmJUxX6EWWy_Me0E9SX-1" value="" style="group" vertex="1" connectable="0" parent="1">
          <mxGeometry x="615" y="-500" width="450" height="90" as="geometry" />
        </mxCell>
        <mxCell id="r5KIFu5fZb0e7EYLhqme-13" value="&lt;span style=&quot;text-align: left;&quot;&gt;s_FMKMAC_SetDmaBspChannel(t_echannel, t_uint32 * BspChannel)&lt;/span&gt;" style="rounded=0;whiteSpace=wrap;html=1;fillColor=#e51400;fontColor=#000000;strokeColor=#B20000;container=0;" vertex="1" parent="AkmJUxX6EWWy_Me0E9SX-1">
          <mxGeometry width="450" height="30" as="geometry" />
        </mxCell>
        <mxCell id="r5KIFu5fZb0e7EYLhqme-14" value="&lt;div style=&quot;text-align: left;&quot;&gt;&lt;span style=&quot;text-wrap: nowrap;&quot;&gt;DmaChannel_e&lt;/span&gt;&lt;/div&gt;" style="shape=hexagon;perimeter=hexagonPerimeter2;whiteSpace=wrap;html=1;fixedSize=1;fillColor=#e51400;fontColor=#000000;strokeColor=#B20000;container=0;" vertex="1" parent="AkmJUxX6EWWy_Me0E9SX-1">
          <mxGeometry y="30" width="450" height="30" as="geometry" />
        </mxCell>
        <mxCell id="r5KIFu5fZb0e7EYLhqme-15" value="&lt;div style=&quot;text-align: left;&quot;&gt;&lt;font&gt;&lt;span style=&quot;text-wrap: nowrap;&quot;&gt;&amp;amp;BspChannel&lt;/span&gt;&lt;/font&gt;&lt;br&gt;&lt;/div&gt;" style="shape=hexagon;perimeter=hexagonPerimeter2;whiteSpace=wrap;html=1;fixedSize=1;fillColor=#e51400;fontColor=#000000;strokeColor=#B20000;container=0;" vertex="1" parent="AkmJUxX6EWWy_Me0E9SX-1">
          <mxGeometry y="60" width="450" height="30" as="geometry" />
        </mxCell>
        <mxCell id="AkmJUxX6EWWy_Me0E9SX-3" value=".direction = PERIH_TO_MEM" style="shape=hexagon;perimeter=hexagonPerimeter2;whiteSpace=wrap;html=1;fixedSize=1;fillColor=#6d8764;strokeColor=#3A5431;fontColor=#000000;" vertex="1" parent="1">
          <mxGeometry x="657.97" y="-260" width="355.94" height="20" as="geometry" />
        </mxCell>
        <mxCell id="AkmJUxX6EWWy_Me0E9SX-4" value=".PeriphToINc = DMA_INC_DISABLE&lt;span style=&quot;color: rgba(0, 0, 0, 0); font-family: monospace; font-size: 0px; text-align: start; text-wrap: nowrap;&quot;&gt;%3CmxGraphModel%3E%3Croot%3E%3CmxCell%20id%3D%220%22%2F%3E%3CmxCell%20id%3D%221%22%20parent%3D%220%22%2F%3E%3CmxCell%20id%3D%222%22%20value%3D%22.direction%20%3D%20PERIH_TO_MEM%22%20style%3D%22shape%3Dhexagon%3Bperimeter%3DhexagonPerimeter2%3BwhiteSpace%3Dwrap%3Bhtml%3D1%3BfixedSize%3D1%3BfillColor%3D%236d8764%3BstrokeColor%3D%233A5431%3BfontColor%3D%23000000%3B%22%20vertex%3D%221%22%20parent%3D%221%22%3E%3CmxGeometry%20x%3D%22662.03%22%20y%3D%22-320%22%20width%3D%22355.94%22%20height%3D%2220%22%20as%3D%22geometry%22%2F%3E%3C%2FmxCell%3E%3C%2Froot%3E%3C%2FmxGraphModel%3E&lt;/span&gt;" style="shape=hexagon;perimeter=hexagonPerimeter2;whiteSpace=wrap;html=1;fixedSize=1;fillColor=#6d8764;strokeColor=#3A5431;fontColor=#000000;" vertex="1" parent="1">
          <mxGeometry x="660" y="-240" width="355.94" height="20" as="geometry" />
        </mxCell>
        <mxCell id="AkmJUxX6EWWy_Me0E9SX-5" value=".MemInc = ENABLE" style="shape=hexagon;perimeter=hexagonPerimeter2;whiteSpace=wrap;html=1;fixedSize=1;fillColor=#6d8764;strokeColor=#3A5431;fontColor=#000000;" vertex="1" parent="1">
          <mxGeometry x="660" y="-220" width="355.94" height="20" as="geometry" />
        </mxCell>
        <mxCell id="AkmJUxX6EWWy_Me0E9SX-6" value="Mode = DMA_CIRCULARE" style="shape=hexagon;perimeter=hexagonPerimeter2;whiteSpace=wrap;html=1;fixedSize=1;fillColor=#6d8764;strokeColor=#3A5431;fontColor=#000000;" vertex="1" parent="1">
          <mxGeometry x="655.94" y="-180" width="355.94" height="20" as="geometry" />
        </mxCell>
        <mxCell id="fqXBwYNZvqvIkBYHzZAr-1" style="edgeStyle=orthogonalEdgeStyle;rounded=0;orthogonalLoop=1;jettySize=auto;html=1;exitX=0.5;exitY=1;exitDx=0;exitDy=0;" edge="1" parent="1" source="AkmJUxX6EWWy_Me0E9SX-8" target="i18zHkk4c-ogXkUSWHEn-2">
          <mxGeometry relative="1" as="geometry" />
        </mxCell>
        <mxCell id="AkmJUxX6EWWy_Me0E9SX-8" value="Priority = DMA_Priority_HIGH" style="shape=hexagon;perimeter=hexagonPerimeter2;whiteSpace=wrap;html=1;fixedSize=1;fillColor=#6d8764;strokeColor=#3A5431;fontColor=#000000;" vertex="1" parent="1">
          <mxGeometry x="660" y="-160" width="355.94" height="20" as="geometry" />
        </mxCell>
        <mxCell id="AkmJUxX6EWWy_Me0E9SX-9" value="PeriphDataAlignment = DMA_MDATAAALIGN_HALFORD" style="shape=hexagon;perimeter=hexagonPerimeter2;whiteSpace=wrap;html=1;fixedSize=1;fillColor=#6d8764;strokeColor=#3A5431;fontColor=#000000;" vertex="1" parent="1">
          <mxGeometry x="655.94" y="-200" width="355.94" height="20" as="geometry" />
        </mxCell>
        <mxCell id="yZn_4k6qG-S_Zd79FeyA-1" value="switch case sur RqstType pour adater .direction + set&amp;nbsp;&lt;div&gt;__HAL_LINKDMA en castant si nécessaire moduleHandle&lt;br&gt;&lt;/div&gt;" style="shape=parallelogram;perimeter=parallelogramPerimeter;whiteSpace=wrap;html=1;fixedSize=1;fillColor=#6d8764;fontColor=#000000;strokeColor=#3A5431;" vertex="1" parent="1">
          <mxGeometry x="664.06" y="-320" width="351.88" height="40" as="geometry" />
        </mxCell>
        <mxCell id="i18zHkk4c-ogXkUSWHEn-1" value="" style="group" vertex="1" connectable="0" parent="1">
          <mxGeometry x="612.9700000000001" y="-60" width="450" height="60" as="geometry" />
        </mxCell>
        <mxCell id="i18zHkk4c-ogXkUSWHEn-3" value="&lt;div style=&quot;text-align: left;&quot;&gt;&lt;span style=&quot;text-wrap: nowrap;&quot;&gt;&amp;amp;g_DmaInfo_as&lt;/span&gt;&lt;font style=&quot;text-wrap: nowrap;&quot; size=&quot;1&quot;&gt;[c_HardwareCfg[RqsType_e]].&lt;/font&gt;&lt;span style=&quot;background-color: initial; text-align: center;&quot;&gt;DMA_HandleTypeDef&lt;/span&gt;&lt;br&gt;&lt;/div&gt;" style="shape=hexagon;perimeter=hexagonPerimeter2;whiteSpace=wrap;html=1;fixedSize=1;fillColor=#e51400;fontColor=#000000;strokeColor=#B20000;container=0;" vertex="1" parent="i18zHkk4c-ogXkUSWHEn-1">
          <mxGeometry y="30" width="450" height="30" as="geometry" />
        </mxCell>
        <mxCell id="r5KIFu5fZb0e7EYLhqme-9" value="Filled BSP struct" style="shape=parallelogram;perimeter=parallelogramPerimeter;whiteSpace=wrap;html=1;fixedSize=1;fillColor=#6d8764;fontColor=#000000;strokeColor=#3A5431;" vertex="1" parent="i18zHkk4c-ogXkUSWHEn-1">
          <mxGeometry x="84.05999999999995" width="351.88" height="20" as="geometry" />
        </mxCell>
        <mxCell id="i18zHkk4c-ogXkUSWHEn-2" value="HAL_DMA_Init" style="rounded=0;whiteSpace=wrap;html=1;fillColor=#e51400;fontColor=#000000;strokeColor=#B20000;container=0;" vertex="1" parent="i18zHkk4c-ogXkUSWHEn-1">
          <mxGeometry width="450" height="30" as="geometry" />
        </mxCell>
        <mxCell id="r5KIFu5fZb0e7EYLhqme-10" value=".instace = BspChannel_u32" style="shape=hexagon;perimeter=hexagonPerimeter2;whiteSpace=wrap;html=1;fixedSize=1;fillColor=#6d8764;strokeColor=#3A5431;fontColor=#000000;" vertex="1" parent="1">
          <mxGeometry x="660" y="-280" width="355.94" height="20" as="geometry" />
        </mxCell>
      </root>
    </mxGraphModel>
  </diagram>
  <diagram id="w8SKK9L5ySzGJSmye7ue" name="Func_FMKMAC_RqstDmaCfg">
    <mxGraphModel dx="592" dy="1516" grid="1" gridSize="10" guides="1" tooltips="1" connect="1" arrows="1" fold="1" page="1" pageScale="1" pageWidth="827" pageHeight="1169" math="0" shadow="0">
      <root>
        <mxCell id="0" />
        <mxCell id="1" parent="0" />
        <mxCell id="cG1-WtnlmOkdsGLrGp4O-1" value="&lt;span style=&quot;color: rgb(0, 0, 0); text-align: left; background-color: initial;&quot;&gt;FMK&lt;span style=&quot;text-wrap: nowrap;&quot;&gt;MAC_RqstDmaInit(&lt;/span&gt;&lt;/span&gt;&lt;span style=&quot;color: rgb(0, 0, 0);&quot;&gt;t_eFMKMAC_DmaRqstType, void *ModuleHandle&lt;/span&gt;&lt;span style=&quot;color: rgb(0, 0, 0); text-align: left; text-wrap: nowrap; background-color: initial;&quot;&gt;)&lt;/span&gt;" style="rounded=0;whiteSpace=wrap;html=1;fillColor=#647687;fontColor=#ffffff;strokeColor=#314354;" parent="1" vertex="1">
          <mxGeometry x="310" y="-970" width="900" height="60" as="geometry" />
        </mxCell>
        <mxCell id="cG1-WtnlmOkdsGLrGp4O-2" style="edgeStyle=orthogonalEdgeStyle;rounded=0;orthogonalLoop=1;jettySize=auto;html=1;exitX=0.5;exitY=1;exitDx=0;exitDy=0;entryX=0.5;entryY=0;entryDx=0;entryDy=0;" parent="1" source="cG1-WtnlmOkdsGLrGp4O-3" target="cG1-WtnlmOkdsGLrGp4O-7" edge="1">
          <mxGeometry relative="1" as="geometry">
            <mxPoint x="790" y="-660" as="targetPoint" />
          </mxGeometry>
        </mxCell>
        <mxCell id="cG1-WtnlmOkdsGLrGp4O-3" value="VerifArgument" style="shape=parallelogram;perimeter=parallelogramPerimeter;whiteSpace=wrap;html=1;fixedSize=1;fillColor=#6d8764;fontColor=#000000;strokeColor=#3A5431;" parent="1" vertex="1">
          <mxGeometry x="621.5699999999999" y="-720" width="351.88" height="20" as="geometry" />
        </mxCell>
        <mxCell id="cG1-WtnlmOkdsGLrGp4O-4" style="edgeStyle=orthogonalEdgeStyle;rounded=0;orthogonalLoop=1;jettySize=auto;html=1;exitX=0.5;exitY=1;exitDx=0;exitDy=0;entryX=0.5;entryY=0;entryDx=0;entryDy=0;" parent="1" source="cG1-WtnlmOkdsGLrGp4O-5" target="cG1-WtnlmOkdsGLrGp4O-3" edge="1">
          <mxGeometry relative="1" as="geometry" />
        </mxCell>
        <mxCell id="cG1-WtnlmOkdsGLrGp4O-5" value="Start" style="ellipse;whiteSpace=wrap;html=1;aspect=fixed;fillColor=#f5f5f5;fontColor=#333333;strokeColor=#666666;" parent="1" vertex="1">
          <mxGeometry x="757.5" y="-850" width="80" height="80" as="geometry" />
        </mxCell>
        <mxCell id="cG1-WtnlmOkdsGLrGp4O-6" value="" style="group" parent="1" connectable="0" vertex="1">
          <mxGeometry x="738.3179038967506" y="-639" width="120" height="110" as="geometry" />
        </mxCell>
        <mxCell id="cG1-WtnlmOkdsGLrGp4O-7" value="" style="rounded=0;whiteSpace=wrap;html=1;" parent="cG1-WtnlmOkdsGLrGp4O-6" vertex="1">
          <mxGeometry width="120" height="110" as="geometry" />
        </mxCell>
        <mxCell id="cG1-WtnlmOkdsGLrGp4O-8" value="" style="group" parent="cG1-WtnlmOkdsGLrGp4O-6" connectable="0" vertex="1">
          <mxGeometry x="10.005533905932793" y="16.779999999999973" width="89.01656219731638" height="93.21709610324916" as="geometry" />
        </mxCell>
        <mxCell id="cG1-WtnlmOkdsGLrGp4O-9" value="" style="ellipse;whiteSpace=wrap;html=1;aspect=fixed;fillColor=#fa6800;fontColor=#000000;strokeColor=#C73500;container=0;" parent="cG1-WtnlmOkdsGLrGp4O-8" vertex="1">
          <mxGeometry x="9.016562197316375" width="80" height="80" as="geometry" />
        </mxCell>
        <mxCell id="cG1-WtnlmOkdsGLrGp4O-10" value="Success" style="text;html=1;align=center;verticalAlign=middle;whiteSpace=wrap;rounded=0;rotation=-45;container=0;fontColor=#000000;" parent="cG1-WtnlmOkdsGLrGp4O-8" vertex="1">
          <mxGeometry x="39.2065621973164" y="40" width="49.81" height="30" as="geometry" />
        </mxCell>
        <mxCell id="cG1-WtnlmOkdsGLrGp4O-11" value="Fail" style="text;html=1;align=center;verticalAlign=middle;whiteSpace=wrap;rounded=0;rotation=-45;container=0;fontColor=#000000;" parent="cG1-WtnlmOkdsGLrGp4O-8" vertex="1">
          <mxGeometry x="9.01656219731648" y="10" width="49.81" height="20" as="geometry" />
        </mxCell>
        <mxCell id="cG1-WtnlmOkdsGLrGp4O-12" value="" style="endArrow=none;html=1;rounded=0;" parent="cG1-WtnlmOkdsGLrGp4O-8" edge="1">
          <mxGeometry width="50" height="50" relative="1" as="geometry">
            <mxPoint x="23.926562197316457" y="65" as="sourcePoint" />
            <mxPoint x="73.92656219731646" y="15" as="targetPoint" />
          </mxGeometry>
        </mxCell>
        <mxCell id="mgc2NeOvxdHATV7WV9qD-2" value="Start" style="ellipse;whiteSpace=wrap;html=1;aspect=fixed;fillColor=#f5f5f5;fontColor=#333333;strokeColor=#666666;" parent="1" vertex="1">
          <mxGeometry x="758.32" y="170" width="80" height="80" as="geometry" />
        </mxCell>
        <mxCell id="cyvJbMUtCMIUnoWr9AO_-1" value="" style="group" parent="1" vertex="1" connectable="0">
          <mxGeometry x="580" y="-480" width="450" height="90" as="geometry" />
        </mxCell>
        <mxCell id="cyvJbMUtCMIUnoWr9AO_-2" value="&lt;span style=&quot;text-align: left;&quot;&gt;FMKMAC_SetBspDmaCfg&lt;/span&gt;" style="rounded=0;whiteSpace=wrap;html=1;fillColor=#e51400;fontColor=#000000;strokeColor=#B20000;container=0;" parent="cyvJbMUtCMIUnoWr9AO_-1" vertex="1">
          <mxGeometry width="450" height="30" as="geometry" />
        </mxCell>
        <mxCell id="cyvJbMUtCMIUnoWr9AO_-3" value="&lt;div style=&quot;text-align: left;&quot;&gt;RqsType_e&lt;/div&gt;" style="shape=hexagon;perimeter=hexagonPerimeter2;whiteSpace=wrap;html=1;fixedSize=1;fillColor=#e51400;fontColor=#000000;strokeColor=#B20000;container=0;" parent="cyvJbMUtCMIUnoWr9AO_-1" vertex="1">
          <mxGeometry y="30" width="450" height="30" as="geometry" />
        </mxCell>
        <mxCell id="cyvJbMUtCMIUnoWr9AO_-4" value="&lt;div style=&quot;text-align: left;&quot;&gt;&lt;span style=&quot;text-wrap: nowrap;&quot;&gt;&amp;amp;g_DmaInfo_as&lt;/span&gt;&lt;font style=&quot;text-wrap: nowrap;&quot; size=&quot;1&quot;&gt;[c_HardwareCfg[RqsType_e]].&lt;/font&gt;&lt;span style=&quot;background-color: initial; text-align: center;&quot;&gt;DMA_HandleTypeDef&lt;/span&gt;&lt;br&gt;&lt;/div&gt;" style="shape=hexagon;perimeter=hexagonPerimeter2;whiteSpace=wrap;html=1;fixedSize=1;fillColor=#e51400;fontColor=#000000;strokeColor=#B20000;container=0;" parent="cyvJbMUtCMIUnoWr9AO_-1" vertex="1">
          <mxGeometry y="60" width="450" height="30" as="geometry" />
        </mxCell>
        <mxCell id="wr6xYaglLpOcwUtnXt2N-1" style="edgeStyle=orthogonalEdgeStyle;rounded=0;orthogonalLoop=1;jettySize=auto;html=1;exitX=0.5;exitY=0;exitDx=0;exitDy=0;startArrow=block;startFill=1;endArrow=none;endFill=0;" parent="1" source="cyvJbMUtCMIUnoWr9AO_-2" target="cG1-WtnlmOkdsGLrGp4O-7" edge="1">
          <mxGeometry relative="1" as="geometry" />
        </mxCell>
        <mxCell id="B0AX0nWIf_9sGvM1gAAq-5" value="" style="group" parent="1" vertex="1" connectable="0">
          <mxGeometry x="580" y="-340" width="450" height="60" as="geometry" />
        </mxCell>
        <mxCell id="B0AX0nWIf_9sGvM1gAAq-2" value="FMKCPU_SetHwClock" style="rounded=0;whiteSpace=wrap;html=1;fillColor=#e51400;fontColor=#000000;strokeColor=#B20000;container=0;" parent="B0AX0nWIf_9sGvM1gAAq-5" vertex="1">
          <mxGeometry width="450" height="30" as="geometry" />
        </mxCell>
        <mxCell id="B0AX0nWIf_9sGvM1gAAq-3" value="&lt;div style=&quot;text-align: left;&quot;&gt;ENUM du DMA used&lt;/div&gt;" style="shape=hexagon;perimeter=hexagonPerimeter2;whiteSpace=wrap;html=1;fixedSize=1;fillColor=#e51400;fontColor=#000000;strokeColor=#B20000;container=0;" parent="B0AX0nWIf_9sGvM1gAAq-5" vertex="1">
          <mxGeometry y="30" width="450" height="30" as="geometry" />
        </mxCell>
        <mxCell id="B0AX0nWIf_9sGvM1gAAq-6" style="edgeStyle=orthogonalEdgeStyle;rounded=0;orthogonalLoop=1;jettySize=auto;html=1;exitX=0.5;exitY=1;exitDx=0;exitDy=0;" parent="1" source="cyvJbMUtCMIUnoWr9AO_-4" target="B0AX0nWIf_9sGvM1gAAq-2" edge="1">
          <mxGeometry relative="1" as="geometry" />
        </mxCell>
        <mxCell id="CBDYTJhjxjvp9pcI0BEW-1" value="End" style="ellipse;whiteSpace=wrap;html=1;aspect=fixed;fillColor=#f5f5f5;fontColor=#333333;strokeColor=#666666;" parent="1" vertex="1">
          <mxGeometry x="758.32" y="30" width="80" height="80" as="geometry" />
        </mxCell>
        <mxCell id="D4UozO9bd0eoIEVEg1xL-1" value="Stockage des informations utiles" style="shape=parallelogram;perimeter=parallelogramPerimeter;whiteSpace=wrap;html=1;fixedSize=1;fillColor=#6d8764;fontColor=#000000;strokeColor=#3A5431;" parent="1" vertex="1">
          <mxGeometry x="629.06" y="-210" width="351.88" height="20" as="geometry" />
        </mxCell>
        <mxCell id="sxKDw78Vn11k3uRRnoDH-1" value=".RqstChannelType = RqstType_e" style="shape=hexagon;perimeter=hexagonPerimeter2;whiteSpace=wrap;html=1;fixedSize=1;fillColor=#6d8764;strokeColor=#3A5431;fontColor=#000000;" parent="1" vertex="1">
          <mxGeometry x="620.35" y="-190" width="355.94" height="20" as="geometry" />
        </mxCell>
        <mxCell id="mdHkgltXDZlqsn2KlwT8-1" value="&lt;div style=&quot;text-align: left;&quot;&gt;Enable&lt;/div&gt;" style="shape=hexagon;perimeter=hexagonPerimeter2;whiteSpace=wrap;html=1;fixedSize=1;fillColor=#e51400;fontColor=#000000;strokeColor=#B20000;container=0;" vertex="1" parent="1">
          <mxGeometry x="580" y="-280" width="450" height="30" as="geometry" />
        </mxCell>
      </root>
    </mxGraphModel>
  </diagram>
  <diagram id="WQW2kt9QvZzRg-qXge0b" name="Func_FMKMAC_SetDmaState">
    <mxGraphModel dx="863" dy="1675" grid="1" gridSize="10" guides="1" tooltips="1" connect="1" arrows="1" fold="1" page="1" pageScale="1" pageWidth="827" pageHeight="1169" math="0" shadow="0">
      <root>
        <mxCell id="0" />
        <mxCell id="1" parent="0" />
        <mxCell id="BgUArL1AkcydtRq3SGGn-1" value="&lt;span style=&quot;color: rgb(0, 0, 0); text-align: left; background-color: initial;&quot;&gt;FMK&lt;span style=&quot;text-wrap: nowrap;&quot;&gt;MAC_SetDmaState(&lt;/span&gt;&lt;/span&gt;&lt;span style=&quot;color: rgb(0, 0, 0);&quot;&gt;t_eFMKMAC_DmaRqstType&lt;/span&gt;&lt;span style=&quot;color: rgb(0, 0, 0); background-color: initial;&quot;&gt;,&amp;nbsp;&lt;/span&gt;&lt;span style=&quot;color: rgb(0, 0, 0); text-align: left; text-wrap: nowrap; background-color: initial;&quot;&gt;t_eFMKMAC_ChannelState&lt;/span&gt;&lt;span style=&quot;color: rgb(0, 0, 0); text-align: left; text-wrap: nowrap; background-color: initial;&quot;&gt;)&lt;/span&gt;" style="rounded=0;whiteSpace=wrap;html=1;fillColor=#647687;fontColor=#ffffff;strokeColor=#314354;" vertex="1" parent="1">
          <mxGeometry x="310" y="-970" width="900" height="60" as="geometry" />
        </mxCell>
        <mxCell id="BgUArL1AkcydtRq3SGGn-2" value="Start" style="ellipse;whiteSpace=wrap;html=1;aspect=fixed;fillColor=#f5f5f5;fontColor=#333333;strokeColor=#666666;" vertex="1" parent="1">
          <mxGeometry x="740" y="-850" width="80" height="80" as="geometry" />
        </mxCell>
        <mxCell id="RoyuJQcVCJtIX36xleKe-1" value="VerifArgument" style="shape=parallelogram;perimeter=parallelogramPerimeter;whiteSpace=wrap;html=1;fixedSize=1;fillColor=#6d8764;fontColor=#000000;strokeColor=#3A5431;" vertex="1" parent="1">
          <mxGeometry x="604.06" y="-730" width="351.88" height="20" as="geometry" />
        </mxCell>
        <mxCell id="e-y4oi3Ze8wIZouvefFJ-1" value="Verif config ettc" style="shape=parallelogram;perimeter=parallelogramPerimeter;whiteSpace=wrap;html=1;fixedSize=1;fillColor=#6d8764;fontColor=#000000;strokeColor=#3A5431;" vertex="1" parent="1">
          <mxGeometry x="599.06" y="-710" width="351.88" height="20" as="geometry" />
        </mxCell>
        <mxCell id="H9HYNXUtbTkdxDUHROV8-1" value="NOT IMPLEMENTED" style="shape=parallelogram;perimeter=parallelogramPerimeter;whiteSpace=wrap;html=1;fixedSize=1;fillColor=#6d8764;fontColor=#000000;strokeColor=#3A5431;" vertex="1" parent="1">
          <mxGeometry x="604.06" y="-570" width="351.88" height="20" as="geometry" />
        </mxCell>
      </root>
    </mxGraphModel>
  </diagram>
</mxfile>
